<?xml version="1.0" standalone="no"?>
<!DOCTYPE svg PUBLIC "-//W3C//DTD SVG 20010904//EN"
 "http://www.w3.org/TR/2001/REC-SVG-20010904/DTD/svg10.dtd">
<svg version="1.0" xmlns="http://www.w3.org/2000/svg"
 width="1024.000000pt" height="1024.000000pt" viewBox="0 0 1024.000000 1024.000000"
 preserveAspectRatio="xMidYMid meet">
<metadata>
Created by potrace 1.14, written by Peter Selinger 2001-2017
</metadata>
<g transform="translate(0.000000,1024.000000) scale(0.100000,-0.100000)"
fill="#000000" stroke="none">
<path d="M4858 10235 c-1 -1 -50 -6 -106 -9 -57 -4 -118 -9 -135 -11 -18 -3
-54 -7 -82 -9 -73 -7 -133 -16 -345 -51 -399 -67 -895 -231 -1316 -436 -196
-95 -564 -307 -572 -330 -2 -5 -8 -9 -12 -9 -12 0 -278 -186 -300 -210 -3 -3
-25 -21 -50 -40 -25 -19 -47 -37 -50 -40 -3 -3 -17 -15 -32 -26 -121 -93 -422
-383 -544 -524 -22 -25 -44 -50 -50 -56 -5 -6 -30 -35 -55 -64 -24 -30 -51
-61 -59 -69 -71 -75 -350 -478 -441 -636 -19 -33 -39 -69 -46 -80 -85 -143
-275 -547 -326 -695 -9 -25 -30 -83 -47 -130 -31 -86 -101 -312 -119 -385 -5
-22 -18 -76 -29 -120 -26 -102 -79 -373 -87 -445 -3 -30 -8 -66 -10 -80 -32
-225 -40 -365 -39 -685 0 -283 5 -379 30 -590 49 -427 165 -881 329 -1295 82
-204 191 -435 274 -580 18 -30 37 -67 44 -83 6 -15 15 -27 19 -27 4 0 8 -4 8
-9 0 -17 109 -186 260 -405 156 -226 478 -587 710 -796 34 -30 255 -217 275
-233 5 -4 39 -29 75 -57 36 -27 76 -58 90 -68 59 -44 304 -204 410 -267 228
-135 574 -299 815 -385 50 -18 99 -36 110 -41 145 -60 634 -183 850 -214 22
-3 54 -7 70 -10 17 -3 48 -7 70 -11 22 -3 54 -8 70 -11 53 -9 1108 -12 1170
-3 33 5 83 11 110 15 295 36 695 131 975 230 41 14 80 27 85 29 6 2 19 7 30
11 11 4 74 29 140 55 453 178 900 440 1305 764 41 33 82 67 91 75 9 9 40 36
70 61 133 113 381 361 494 496 22 26 47 55 56 65 51 52 247 317 344 464 265
401 450 785 600 1240 45 136 124 425 140 514 3 14 7 37 10 51 12 52 42 225 51
290 3 19 7 46 9 60 3 14 7 50 10 81 3 31 8 71 10 90 27 205 27 810 0 1024 -2
17 -7 55 -10 85 -3 30 -8 64 -10 75 -2 11 -7 43 -10 70 -5 44 -11 79 -32 195
-3 20 -31 154 -48 233 -2 10 -7 27 -10 37 -3 10 -7 27 -9 37 -2 10 -9 38 -16
63 -7 25 -14 52 -16 60 -24 106 -135 425 -217 625 -119 289 -391 777 -549 985
-11 14 -58 77 -105 140 -48 63 -89 117 -93 120 -3 3 -32 37 -64 75 -193 231
-439 473 -672 660 -54 44 -101 82 -104 85 -25 27 -450 320 -463 320 -2 0 -44
24 -93 54 -414 249 -958 462 -1469 575 -157 34 -418 79 -510 86 -16 2 -57 6
-91 9 -33 4 -83 9 -110 12 -56 6 -650 14 -656 9z"/>
</g>
</svg>
